Coordinates
nRows=11
nColumns=24

# SIMM Motion File Header:
name Coordinates
datacolumns 24
datarows 11
otherdata 1
range 1.56600000000000010000 1.57600000000000010000
endheader
time	pelvis_tx	pelvis_ty	pelvis_tz	pelvis_tilt	pelvis_list	pelvis_rotation	hip_flexion_r	hip_adduction_r	hip_rotation_r	knee_angle_r	ankle_angle_r	subtalar_angle_r	mtp_angle_r	hip_flexion_l	hip_adduction_l	hip_rotation_l	knee_angle_l	ankle_angle_l	subtalar_angle_l	mtp_angle_l	lumbar_extension	lumbar_bending	lumbar_rotation
      1.56600000000000010000	      2.02986441264988040000	      0.95000644810863444000	     -0.26842989726154226000	     -0.53963653464610895000	      1.90939904647328640000	      3.79773426399560470000	      5.91009777988387520000	      0.73642611252399259000	      8.83434440117763310000	    -11.93993745123445100000	      6.76222427322486300000	     -0.00000000000010114957	      0.00000000000042321008	     14.50679198182684400000	      2.61251828239459230000	      3.75813536298810200000	    -45.90152947574993200000	      2.42673577723787300000	     -0.00000000000003033136	      0.00000000000046974895	     -2.04499102926554330000	      1.73385122007161760000	     -0.26947968694618984000
      1.56699999999999990000	      2.03015748560057170000	      0.95000481001442105000	     -0.26842914780501170000	     -0.53807925848693328000	      1.92401777652643550000	      3.79489767077848270000	      5.88421031994236450000	      0.72812417704530830000	      8.85314484993751800000	    -11.94085874185039800000	      6.77773660969333760000	     -0.00000000000010128032	      0.00000000000042392597	     14.56951597828328800000	      2.63196130948784600000	      3.74954823517268830000	    -45.79699298983072700000	      2.54702358577228380000	     -0.00000000000003032190	      0.00000000000047020762	     -2.05981093000330520000	      1.72058472292243580000	     -0.27271083303464533000
      1.56800000000000010000	      2.03045055855126310000	      0.95000317192020767000	     -0.26842839834848109000	     -0.53652198232775727000	      1.93863650657958790000	      3.79206107756135990000	      5.85832286000084770000	      0.71982224156662222000	      8.87194529869740830000	    -11.94178003246634600000	      6.79324894616181480000	     -0.00000000000010141107	      0.00000000000042464186	     14.63223997473974900000	      2.65140433658110420000	      3.74096110735727240000	    -45.69245650391149400000	      2.66731139430672170000	     -0.00000000000003031244	      0.00000000000047066630	     -2.07463083074107010000	      1.70731822577325110000	     -0.27594197912310148000
      1.56900000000000000000	      2.03074300064361650000	      0.95000080182048163000	     -0.26842829694644549000	     -0.53512421188593318000	      1.95308247044458110000	      3.78935119055087230000	      5.83260937848832840000	      0.71160891051220188000	      8.89120705926247370000	    -11.94268321984168700000	      6.80958160939152620000	     -0.00000000000010152172	      0.00000000000042531385	     14.69481377417789100000	      2.67072694133898380000	      3.73251065978791190000	    -45.58654363293354100000	      2.78492861065227660000	     -0.00000000000003030592	      0.00000000000047113841	     -2.08925370640511380000	      1.69422680657127620000	     -0.27921953686772633000
      1.57000000000000010000	      2.03103523244985730000	      0.94999818771891797000	     -0.26842841156257485000	     -0.53377961001655982000	      1.96747084558019130000	      3.78668353894259590000	      5.80695388978546670000	      0.70342511426586785000	      8.91062259042927000000	    -11.94358037280349000000	      6.82618771487498850000	     -0.00000000000010162568	      0.00000000000042597120	     14.75733750794328000000	      2.69000940531840980000	      3.72410577230056730000	    -45.48017196693597700000	      2.90165562960156500000	     -0.00000000000003030037	      0.00000000000047161501	     -2.10381090704458720000	      1.68119374668503440000	     -0.28251256516440842000
      1.57100000000000000000	      2.03132728014991850000	      0.94999536393826733000	     -0.26842872044715216000	     -0.53246668280191045000	      1.98179987499196410000	      3.78404798472936040000	      5.78132928268733080000	      0.69527678259581993000	      8.93019015415750590000	    -11.94446897723069200000	      6.84309200814680100000	     -0.00000000000010172211	      0.00000000000042661612	     14.81976730264965900000	      2.70924537757055140000	      3.71574735265820650000	    -45.37331058260203100000	      3.01764197823791580000	     -0.00000000000003029517	      0.00000000000047209282	     -2.11832612893239690000	      1.66822029084543820000	     -0.28580461317796380000
      1.57200000000000010000	      2.03161877553144030000	      0.94999191112035575000	     -0.26842961213707323000	     -0.53124877955143290000	      1.99595086723223460000	      3.78150872270124780000	      5.75579732040334770000	      0.68723484465462403000	      8.95021381557007880000	    -11.94533193605408200000	      6.86089086478369210000	     -0.00000000000010179598	      0.00000000000042722377	     14.88191528017905800000	      2.72834187464085700000	      3.70752833655079030000	    -45.26498004325883100000	      3.13140631593552810000	     -0.00000000000003029101	      0.00000000000047257425	     -2.13271541456522630000	      1.65542564714576960000	     -0.28909372034214181000
      1.57300000000000000000	      2.03191027091296220000	      0.94998845830244416000	     -0.26843050382699429000	     -0.53003087630095569000	      2.01010185947250180000	      3.77896946067313520000	      5.73026535811937080000	      0.67919290671342991000	      8.97023747698264980000	    -11.94619489487747200000	      6.87868972142057890000	     -0.00000000000010186985	      0.00000000000042783143	     14.94406325770844300000	      2.74743837171115810000	      3.69930932044337620000	    -45.15664950391565200000	      3.24517065363311510000	     -0.00000000000003028686	      0.00000000000047305568	     -2.14710470019805300000	      1.64263100344610380000	     -0.29238282750631917000
      1.57400000000000010000	      2.03220139620965320000	      0.94998457985060114000	     -0.26843179964767772000	     -0.52885407871690593000	      2.02411416559079440000	      3.77648524259881890000	      5.70476269723574080000	      0.67124138184996585000	      8.99059656147841220000	    -11.94702872617743200000	      6.89712281759434380000	     -0.00000000000010193551	      0.00000000000042841688	     15.00592523949354800000	      2.76641791389703110000	      3.69119762937180960000	    -45.04714912241837500000	      3.35757432459300810000	     -0.00000000000003028850	      0.00000000000047354518	     -2.16143159639303750000	      1.62997409521819160000	     -0.29564010964007248000
      1.57500000000000000000	      2.03249219380835510000	      0.94998034147151400000	     -0.26843345796970647000	     -0.52772387242485252000	      2.03801226087263570000	      3.77407133134155300000	      5.67929490993737570000	      0.66335999523653888000	      9.01120252225318200000	    -11.94783548771928800000	      6.91604362498681180000	     -0.00000000000010200957	      0.00000000000042901693	     15.06758078499433900000	      2.78530481860776780000	      3.68320771068025810000	    -44.93667323320873000000	      3.46796707770427970000	     -0.00000000000003029325	      0.00000000000047404138	     -2.17569401972526680000	      1.61742662126257250000	     -0.29888873788746095000
      1.57600000000000010000	      2.03278274479418600000	      0.94997583992951851000	     -0.26843539121201765000	     -0.52663336024009388000	      2.05182830875726370000	      3.77172012902000290000	      5.65385742352911700000	      0.65552688515797330000	      9.03197149683697380000	    -11.94862129683262700000	      6.93529789553070670000	     -0.00000000000010209707	      0.00000000000042964351	     15.12910223901466900000	      2.80412697028478690000	      3.67532158191567900000	    -44.82549063325873100000	      3.57648025566288610000	     -0.00000000000003029942	      0.00000000000047454242	     -2.18990373018089680000	      1.60495581233084670000	     -0.30213972496239788000
